PathFileType	4	(X/Y/Z)	Walk5.trc
DataRate	CameraRate	NumFrames	NumMarkers	Units	OrigDataRate	OrigDataStartFrame	OrigNumFrames
200.000000	200.000000	6	59	mm	200.000000	419	534
Frame#	Times		LBHD		C7		T10		RBack		LPSI		RPSI		RCAR		LElbowM		RElbowM		LUA1		RBHD		RFA1		LLFC		LCAR		RWRR		RFHD		LACR1		RTH3		CLAV		LWRR		RUA1		RTH2		RACR1		LWRU		RTB4		RTH4		RTB3		RToe		RMT1		RWRU		LFA1		RCAL		RMT5		LTH4		LTH1		RElbow		RLFC		RTB1		RTB2		STRN		LElbow		LFHD		LTH2		LTH3		RMMAL		RLMAL		LTB3		LTB2		RASI		LCAL		LMT1		LASI		LLMAL		LTB1		LMT5		RTH1		LTB4		LToe		LMMAL
			X1	Y1	Z1	X2	Y2	Z2	X3	Y3	Z3	X4	Y4	Z4	X5	Y5	Z5	X6	Y6	Z6	X7	Y7	Z7	X8	Y8	Z8	X9	Y9	Z9	X10	Y10	Z10	X11	Y11	Z11	X12	Y12	Z12	X13	Y13	Z13	X14	Y14	Z14	X15	Y15	Z15	X16	Y16	Z16	X17	Y17	Z17	X18	Y18	Z18	X19	Y19	Z19	X20	Y20	Z20	X21	Y21	Z21	X22	Y22	Z22	X23	Y23	Z23	X24	Y24	Z24	X25	Y25	Z25	X26	Y26	Z26	X27	Y27	Z27	X28	Y28	Z28	X29	Y29	Z29	X30	Y30	Z30	X31	Y31	Z31	X32	Y32	Z32	X33	Y33	Z33	X34	Y34	Z34	X35	Y35	Z35	X36	Y36	Z36	X37	Y37	Z37	X38	Y38	Z38	X39	Y39	Z39	X40	Y40	Z40	X41	Y41	Z41	X42	Y42	Z42	X43	Y43	Z43	X44	Y44	Z44	X45	Y45	Z45	X46	Y46	Z46	X47	Y47	Z47	X48	Y48	Z48	X49	Y49	Z49	X50	Y50	Z50	X51	Y51	Z51	X52	Y52	Z52	X53	Y53	Z53	X54	Y54	Z54	X55	Y55	Z55	X56	Y56	Z56	X57	Y57	Z57	X58	Y58	Z58	X59	Y59	Z59

419	2.095	368.5	1473.4	-102.36	334.65	1338.6	-29.507	298.51	1070.5	-31.975	305.58	1238.9	102.49	279.59	871.84	-68.619	270.16	892.03	28.184	611.49	779.23	255.7	337.83	949.59	-224.15	397.93	935.1	179.78	409.39	1097.4	-272.48	363.41	1481.6	21.117	486.94	869.36	254.15	588.89	458.72	-159.94	462.95	701.33	-346.27	608.92	823.72	209	542.79	1475.7	2.7797	415.12	1270.1	-191.01	351.55	545.7	139.42	457.54	1257.4	-20.89	474.27	738.33	-295.18	429.31	1127.3	210.39	443	631.06	132.73	403.63	1278.2	126.66	415.48	743.47	-339.91	292.16	236.45	26.279	372.64	635.39	166.01	270.45	145.01	19.392	361.38	24.137	-8.1217	303.26	42.427	-10.962	552.65	782.92	234.39	389.43	861.66	-321.66	155.92	58.991	49.536	290.16	33.909	47.775	524.28	649.18	-191	475.71	726.48	-214.37	433.9	985.99	254.72	341.25	445.76	117.77	324.76	323.03	26.246	278.47	236.93	96.879	518.9	1151.9	-20.979	367.7	982.12	-290.22	540.55	1466.6	-74.157	571.79	691.32	-153.34	567.81	568.86	-169.53	213.34	82.373	-14.563	222.32	71.851	65.839	704.45	188.36	-78.379	645.13	265.47	-148	355.66	882.91	136.13	659.3	30.706	-71.086	799.67	97.493	-82.744	483.24	844.07	-179.95	686.35	77.799	-118	659.71	365.51	-86.056	780.37	70.503	-132.44	394.65	717.82	194.02	673.01	274.45	-82.865	847.5	98.529	-101.64	710.12	91.248	-43.249
420	2.1	374.35	1472.6	-103.08	340.4	1337.9	-30.22	304.36	1069.7	-32.61	311.3	1238.3	101.88	285.85	871.28	-69.612	276	891.57	27.103	618.75	779.17	254.63	342.97	948.8	-224.46	404.58	934.52	179.25	414.68	1096.7	-273.08	369.17	1480.9	20.38	493.99	869.01	253.4	594.32	457.65	-159.83	467.17	700.37	-346.94	615.94	823.61	207.87	548.57	1475	2.1703	421.03	1269.3	-191.59	355.43	545.51	139.24	463.34	1256.8	-21.443	478.72	737.33	-295.87	435.56	1126.8	209.78	447.35	630.41	133.21	409.3	1277.6	126.08	419.83	742.63	-340.49	294.32	236.57	26.009	376.73	635.12	165.93	271.69	145.35	19.182	361.41	24.153	-8.1934	303.49	42.549	-11.133	559.85	782.7	233.44	394.13	860.89	-322.16	156.26	60.494	49.258	290.26	34.095	47.595	529.92	648.09	-191.15	481.36	725.45	-214.45	440.75	985.51	254.06	344.92	445.55	117.53	327.78	322.81	25.981	280.51	237.23	96.599	524.73	1151.3	-21.331	372.69	981.36	-290.62	546.38	1465.9	-74.767	577.54	690.21	-153.61	573.31	567.77	-169.57	213.98	83.289	-14.789	222.78	72.69	65.59	713.37	188.82	-78.328	653.22	265.34	-147.96	358.7	882.92	136.04	670.35	30.331	-71.65	809.98	98.977	-82.492	490.1	843.34	-179.89	697	78.076	-118.32	666.19	365.44	-85.683	791.16	72.058	-132.42	398.91	717.48	193.95	680.75	274.54	-82.706	857.78	100.68	-100.99	720.22	91.675	-43.397
421	2.105	380.2	1471.9	-103.82	346.17	1337.2	-30.964	310.26	1069	-33.258	317.04	1237.7	101.23	292.16	870.76	-70.621	281.91	891.12	26.01	625.9	779.09	253.57	348.16	948.03	-224.77	411.16	933.97	178.69	420	1095.9	-273.7	374.95	1480.3	19.628	500.95	868.67	252.62	599.77	456.62	-159.71	471.44	699.43	-347.59	622.87	823.48	206.74	554.35	1474.4	1.5408	426.95	1268.4	-192.21	359.4	545.33	139.04	469.15	1256.1	-22.026	483.21	736.35	-296.54	441.8	1126.3	209.16	451.78	629.8	133.69	414.98	1277.1	125.48	424.22	741.81	-341.06	296.55	236.72	25.743	380.89	634.87	165.84	272.99	145.72	18.982	361.43	24.167	-8.2701	303.75	42.69	-11.297	566.96	782.48	232.51	398.87	860.14	-322.66	156.64	62.082	49.003	290.39	34.297	47.432	535.61	647.08	-191.27	487.09	724.5	-214.49	447.56	985.05	253.38	348.69	445.34	117.3	330.88	322.6	25.729	282.63	237.56	96.337	530.59	1150.7	-21.71	377.72	980.62	-291.04	552.22	1465.2	-75.398	583.4	689.15	-153.88	578.85	566.72	-169.57	214.66	84.258	-14.996	223.29	73.577	65.351	721.73	189.13	-78.201	660.96	265.14	-147.86	362.13	882.9	135.92	680.52	29.95	-72.146	819.53	100.15	-82.119	497.02	842.65	-179.81	706.87	78.263	-118.55	672.51	365.27	-85.295	801.14	73.327	-132.27	403.24	717.17	193.87	688.14	274.52	-82.504	867.31	102.42	-100.21	729.55	91.964	-43.456
422	2.11	386.04	1471.3	-104.58	351.93	1336.6	-31.736	316.21	1068.3	-33.917	322.8	1237.1	100.55	298.53	870.26	-71.641	287.88	890.68	24.91	632.95	778.97	252.51	353.4	947.3	-225.09	417.69	933.47	178.1	425.35	1095.2	-274.34	380.72	1479.7	18.86	507.83	868.34	251.83	605.25	455.63	-159.58	475.75	698.52	-348.22	629.71	823.31	205.62	560.14	1473.8	0.89058	432.89	1267.7	-192.87	363.48	545.15	138.83	474.98	1255.5	-22.64	487.73	735.39	-297.2	448.01	1125.9	208.51	456.27	629.2	134.14	420.67	1276.6	124.85	428.66	741.01	-341.61	298.85	236.88	25.484	385.14	634.64	165.75	274.33	146.14	18.794	361.45	24.181	-8.3519	304.02	42.849	-11.454	573.96	782.25	231.57	403.66	859.42	-323.16	157.07	63.755	48.77	290.53	34.517	47.285	541.37	646.13	-191.34	492.92	723.66	-214.48	454.32	984.63	252.66	352.58	445.13	117.08	334.07	322.39	25.49	284.83	237.92	96.091	536.48	1150.1	-22.118	382.79	979.91	-291.47	558.06	1464.5	-76.049	589.38	688.16	-154.17	584.42	565.73	-169.54	215.39	85.282	-15.183	223.84	74.516	65.131	729.56	189.26	-77.992	668.33	264.87	-147.72	365.95	882.86	135.8	689.81	29.543	-72.564	828.32	100.97	-81.62	503.98	842.02	-179.71	715.97	78.332	-118.68	678.68	364.99	-84.89	810.32	74.274	-131.99	407.64	716.87	193.76	695.18	274.38	-82.253	876.08	103.69	-99.315	738.11	92.091	-43.418
423	2.115	391.89	1470.6	-105.35	357.71	1336	-32.538	322.2	1067.6	-34.588	328.57	1236.5	99.839	304.95	869.8	-72.667	293.93	890.25	23.807	639.88	778.83	251.47	358.69	946.6	-225.41	424.17	933.01	177.49	430.74	1094.6	-274.99	386.5	1479.1	18.077	514.63	868.02	251.03	610.77	454.69	-159.43	480.12	697.63	-348.84	636.47	823.12	204.52	565.93	1473.2	0.21904	438.83	1266.9	-193.55	367.66	544.98	138.61	480.82	1255	-23.288	492.3	734.46	-297.84	454.2	1125.5	207.85	460.85	628.63	134.57	426.38	1276.1	124.18	433.15	740.25	-342.15	301.22	237.08	25.235	389.49	634.42	165.65	275.72	146.59	18.615	361.47	24.192	-8.4388	304.3	43.023	-11.603	580.85	782.03	230.64	408.49	858.72	-323.66	157.54	65.517	48.56	290.7	34.752	47.153	547.2	645.27	-191.36	498.87	722.92	-214.45	461.03	984.24	251.91	356.59	444.93	116.89	337.36	322.18	25.267	287.12	238.29	95.856	542.39	1149.7	-22.559	387.91	979.23	-291.9	563.89	1463.9	-76.72	595.47	687.22	-154.46	590.03	564.8	-169.48	216.16	86.364	-15.349	224.45	75.512	64.934	736.86	189.2	-77.696	675.36	264.51	-147.51	370.19	882.8	135.65	698.22	29.096	-72.899	836.36	101.41	-80.996	510.98	841.43	-179.59	724.29	78.262	-118.72	684.71	364.59	-84.463	818.69	74.868	-131.58	412.13	716.59	193.64	701.89	274.1	-81.949	884.11	104.47	-98.295	745.91	92.034	-43.282
424	2.12	397.74	1470.1	-106.14	363.49	1335.4	-33.368	328.26	1067	-35.268	334.37	1236	99.102	311.42	869.36	-73.69	300.04	889.84	22.706	646.7	778.66	250.44	364.04	945.94	-225.74	430.58	932.58	176.85	436.17	1093.9	-275.67	392.28	1478.6	17.277	521.35	867.71	250.21	616.33	453.79	-159.27	484.53	696.77	-349.44	643.13	822.9	203.42	571.72	1472.7	-0.47437	444.78	1266.2	-194.27	371.96	544.81	138.37	486.68	1254.5	-23.971	496.91	733.56	-298.46	460.37	1125.2	207.17	465.52	628.07	134.97	432.1	1275.7	123.49	437.69	739.51	-342.68	303.68	237.29	24.999	393.95	634.2	165.54	277.17	147.09	18.447	361.49	24.201	-8.5304	304.61	43.211	-11.744	587.64	781.79	229.71	413.36	858.05	-324.15	158.06	67.37	48.372	290.9	35.003	47.035	553.1	644.49	-191.35	504.93	722.29	-214.38	467.69	983.88	251.13	360.74	444.74	116.71	340.74	321.97	25.061	289.5	238.68	95.628	548.33	1149.2	-23.034	393.07	978.58	-292.34	569.73	1463.3	-77.413	601.68	686.34	-154.74	595.69	563.94	-169.4	216.99	87.505	-15.493	225.11	76.57	64.766	743.63	188.95	-77.313	682.05	264.05	-147.25	374.83	882.71	135.49	705.74	28.601	-73.145	843.67	101.46	-80.253	518.01	840.89	-179.46	731.84	78.035	-118.65	690.6	364.07	-84.008	826.28	75.087	-131.04	416.72	716.32	193.49	708.27	273.68	-81.589	891.42	104.73	-97.163	752.96	91.778	-43.046
